<?xml version="1.0" encoding="utf-8"?>
<!-- Generator: Adobe Illustrator 26.0.1, SVG Export Plug-In . SVG Version: 6.00 Build 0)  -->
<svg version="1.1" id="Layer_1" xmlns="http://www.w3.org/2000/svg" xmlns:xlink="http://www.w3.org/1999/xlink" x="0px" y="0px"
	 viewBox="0 0 578 578" style="enable-background:new 0 0 578 578;" xml:space="preserve">
<style type="text/css">
	.st0{fill:url(#SVGID_1_);}
	.st1{fill:#FFFFFF;}
</style>
<g>
	<linearGradient id="SVGID_1_" gradientUnits="userSpaceOnUse" x1="0" y1="289.0173" x2="578.0346" y2="289.0173">
		<stop  offset="0" style="stop-color:#002B5B"/>
		<stop  offset="1" style="stop-color:#000000"/>
	</linearGradient>
	<path class="st0" d="M549.7,578H28.3C12.7,578,0,565.3,0,549.7V28.3C0,12.7,12.7,0,28.3,0h521.3C565.3,0,578,12.7,578,28.3v521.3
		C578,565.3,565.3,578,549.7,578z"/>
	<g>
		<g>
			<g>
				<path class="st1" d="M475.1,201.6c15.9-38.2,39.1-73.3,68.5-103.2c-18.8,4-37.5,9.7-55.9,17c-112.8,44.9-189,142.3-211.6,253
					c34.3-69,93.2-126.2,170.5-156.9C456.1,207.6,465.6,204.4,475.1,201.6z"/>
			</g>
			<g>
				<path class="st1" d="M459.7,253.8c-10.3,31.3-27.9,60.8-51.2,87.2c2.2,7.2,3.9,14.6,5.3,22.1c11.1,61.6-7.5,123-47.1,174.1
					c78.5-61.6,121.5-151.1,105.2-241C469.4,281.5,465.2,267.3,459.7,253.8z"/>
			</g>
		</g>
		<g>
			<g>
				<path class="st1" d="M361.6,91.4C270.9,34,162.9,22.7,74.5,71.7c-14.5,8-27.8,17.3-40.1,27.8c36.1-0.8,72.9,6.3,108.3,20.4
					c6.8-4.8,13.9-9.3,21.3-13.4C224.5,73,294.9,69.7,361.6,91.4z"/>
			</g>
			<g>
				<polygon class="st1" points="227.7,167.5 226.2,167.5 165.4,193.4 165.4,517.8 166.7,517.8 227.7,491.9 				"/>
			</g>
		</g>
	</g>
</g>
</svg>
